<svg width="24" height="24" viewBox="0 0 24 24" fill="none" xmlns="http://www.w3.org/2000/svg">
<circle cx="12" cy="12" r="12" fill="#313550"/>
<path d="M9 5.25C6.93225 5.25 5.25 6.93225 5.25 9V15C5.25 17.0677 6.93225 18.75 9 18.75H15C17.0677 18.75 18.75 17.0677 18.75 15V9C18.75 6.93225 17.0677 5.25 15 5.25H9ZM9 6.75H15C16.2405 6.75 17.25 7.7595 17.25 9V15C17.25 16.2405 16.2405 17.25 15 17.25H9C7.7595 17.25 6.75 16.2405 6.75 15V9C6.75 7.7595 7.7595 6.75 9 6.75ZM15.75 7.5C15.5511 7.5 15.3603 7.57902 15.2197 7.71967C15.079 7.86032 15 8.05109 15 8.25C15 8.44891 15.079 8.63968 15.2197 8.78033C15.3603 8.92098 15.5511 9 15.75 9C15.9489 9 16.1397 8.92098 16.2803 8.78033C16.421 8.63968 16.5 8.44891 16.5 8.25C16.5 8.05109 16.421 7.86032 16.2803 7.71967C16.1397 7.57902 15.9489 7.5 15.75 7.5ZM12 8.25C9.93225 8.25 8.25 9.93225 8.25 12C8.25 14.0677 9.93225 15.75 12 15.75C14.0677 15.75 15.75 14.0677 15.75 12C15.75 9.93225 14.0677 8.25 12 8.25ZM12 9.75C13.2405 9.75 14.25 10.7595 14.25 12C14.25 13.2405 13.2405 14.25 12 14.25C10.7595 14.25 9.75 13.2405 9.75 12C9.75 10.7595 10.7595 9.75 12 9.75Z" fill="#FFCE89"/>
</svg>
