<svg width="24" height="24" viewBox="0 0 24 24" fill="none" xmlns="http://www.w3.org/2000/svg">
<circle cx="12" cy="12" r="12" fill="#313550"/>
<path d="M17.25 5.25H6.75C5.92125 5.25 5.25 5.92125 5.25 6.75V17.25C5.25 18.0787 5.92125 18.75 6.75 18.75H17.25C18.0787 18.75 18.75 18.0787 18.75 17.25V6.75C18.75 5.92125 18.0787 5.25 17.25 5.25ZM9.75 15.75H7.85775V10.5H9.75V15.75ZM8.7705 9.53775C8.19225 9.53775 7.806 9.15225 7.806 8.63775C7.806 8.12325 8.1915 7.73775 8.83425 7.73775C9.4125 7.73775 9.79875 8.12325 9.79875 8.63775C9.79875 9.15225 9.41325 9.53775 8.7705 9.53775ZM16.5 15.75H14.6685V12.8805C14.6685 12.087 14.1803 11.904 13.9972 11.904C13.8142 11.904 13.2037 12.0262 13.2037 12.8805C13.2037 13.0027 13.2037 15.75 13.2037 15.75H11.3115V10.5H13.2037V11.2327C13.4475 10.8053 13.9358 10.5 14.8515 10.5C15.7673 10.5 16.5 11.2327 16.5 12.8805V15.75Z" fill="#FFCE89"/>
</svg>
