<svg width="24" height="24" viewBox="0 0 24 24" fill="none" xmlns="http://www.w3.org/2000/svg">
<circle cx="12" cy="12" r="12" fill="#313550"/>
<path d="M12.0088 4.5C7.87929 4.5 4.51761 7.85878 4.51611 11.9883C4.51536 13.3083 4.8611 14.5969 5.5166 15.7324L4.5 19.5L8.42432 18.5728C9.51857 19.1698 10.7504 19.4831 12.0044 19.4839H12.0073C16.1361 19.4839 19.4963 16.1244 19.4985 11.9956C19.5 9.99385 18.7216 8.1118 17.3071 6.6958C15.8926 5.28055 14.0128 4.50075 12.0088 4.5ZM12.0073 6C13.6093 6.00075 15.1148 6.62535 16.2466 7.75635C17.3783 8.88885 18 10.3936 17.9985 11.9941C17.997 15.2971 15.3104 17.9839 12.0059 17.9839C11.0061 17.9831 10.0158 17.7321 9.14355 17.2559L8.63818 16.9805L8.08008 17.1123L6.60352 17.4609L6.96387 16.1221L7.12646 15.5215L6.81592 14.9824C6.29242 14.0764 6.01536 13.0405 6.01611 11.9883C6.01761 8.68678 8.70507 6 12.0073 6ZM9.35742 8.53125C9.23217 8.53125 9.02966 8.57812 8.85791 8.76562C8.68616 8.95237 8.20166 9.40468 8.20166 10.3257C8.20166 11.2467 8.87256 12.137 8.96631 12.2622C9.05931 12.3867 10.2613 14.3364 12.1641 15.0864C13.7451 15.7097 14.0662 15.5867 14.4097 15.5552C14.7532 15.5244 15.5178 15.1033 15.6738 14.666C15.8298 14.2288 15.8302 13.8526 15.7837 13.7754C15.7372 13.6974 15.6123 13.6509 15.4248 13.5571C15.2381 13.4634 14.3177 13.0115 14.146 12.9492C13.9742 12.887 13.8486 12.8555 13.7241 13.043C13.5996 13.2305 13.2418 13.6509 13.1323 13.7754C13.0228 13.9006 12.9141 13.9175 12.7266 13.8237C12.5391 13.7292 11.9362 13.5311 11.2207 12.8936C10.6642 12.3978 10.2887 11.7861 10.1792 11.5986C10.0704 11.4119 10.1689 11.3093 10.2627 11.2163C10.3467 11.1323 10.4487 10.9977 10.5425 10.8882C10.6355 10.7787 10.6677 10.7007 10.73 10.5762C10.7922 10.4517 10.7604 10.3418 10.7139 10.248C10.6674 10.1543 10.3032 9.22988 10.1367 8.85938C9.99647 8.54812 9.84834 8.54089 9.71484 8.53564C9.60609 8.53114 9.48192 8.53125 9.35742 8.53125Z" fill="#FFCE89"/>
</svg>
